<?xml version="1.0" encoding="utf-8"?>
<svg xmlns="http://www.w3.org/2000/svg" viewBox="902.349 -181.41 1329.4811 1419.5801" width="1294.95px" height="1494.29px" preserveAspectRatio="none"><path style="font-size:2050.27807617px;font-style:normal;font-weight:normal;fill:#ffffff;fill-opacity:1;stroke:none;stroke-width:1px;stroke-linecap:butt;stroke-linejoin:miter;stroke-opacity:1;font-family:Times New Roman" d="M 1580.1 -181.41 C 1746.29 -181.41 1896.45 -117.16 2030.6 11.31 C 2164.75 139.787 2231.83 309.809 2231.83 521.376 C 2231.83 731.61 2165.75 903.635 2033.61 1037.45 C 1901.46 1171.26 1744.95 1238.17 1564.08 1238.17 C 1363.19 1238.17 1202.68 1167.76 1082.54 1026.94 C 962.416 886.115 902.349 718.262 902.349 523.379 C 902.349 312.479 969.927 142.29 1105.07 12.811 C 1240.22 -116.66 1398.57 -181.41 1580.1 -181.41 Z M 1561.08 -108.32 C 1431.6 -108.32 1327.65 -54.762 1249.23 52.355 C 1170.81 159.475 1131.6 315.148 1131.6 519.374 C 1131.6 710.253 1168.31 865.926 1241.73 986.389 C 1315.14 1106.86 1421.93 1167.09 1562.08 1167.09 C 1698.23 1167.09 1805.69 1114.2 1884.44 1008.42 C 1963.19 902.634 2002.57 748.963 2002.57 547.405 C 2002.57 343.179 1965.7 182.835 1891.95 66.371 C 1818.2 -50.091 1707.91 -108.32 1561.08 -108.32 Z M 1325.82 286.115 L 1363.86 286.115 C 1363.86 343.513 1375.54 384.559 1398.9 409.252 C 1422.26 433.947 1465.31 446.294 1528.04 446.293 L 1609.13 446.293 C 1668.53 446.294 1710.25 434.114 1734.27 409.752 C 1758.3 385.393 1770.31 344.18 1770.31 286.115 L 1808.36 286.115 L 1808.36 769.652 L 1770.31 769.652 C 1770.31 712.923 1758.63 672.211 1735.27 647.517 C 1711.91 622.823 1669.2 610.476 1607.13 610.475 L 1524.04 610.475 C 1464.64 610.476 1423.09 622.823 1399.4 647.517 C 1375.71 672.211 1363.86 712.923 1363.86 769.652 L 1325.82 769.652 L 1325.82 286.115 Z" id="text2175" transform="matrix(1.0000000000000002, 0, 0, 1.0000000000000002, 4.547473508864641e-13, 0)"/></svg>