<?xml version="1.0" encoding="utf-8"?>
<svg xmlns="http://www.w3.org/2000/svg" viewBox="902.349 8.187 1329.4811 1229.983" width="1294.95px" height="1294.71px" preserveAspectRatio="none"><path style="font-size: 2050.28px; font-style: normal; font-weight: normal; fill: rgb(0, 0, 0); fill-opacity: 1; stroke: none; stroke-width: 1px; stroke-linecap: butt; stroke-linejoin: miter; stroke-opacity: 1; font-family: &quot;Times New Roman&quot;;" d="M 1580.1 8.187 C 1746.29 8.187 1896.45 63.857 2030.6 175.167 C 2164.75 286.485 2231.83 433.801 2231.83 617.109 C 2231.83 799.266 2165.75 948.315 2033.61 1064.26 C 1901.46 1180.2 1744.95 1238.17 1564.08 1238.17 C 1363.19 1238.17 1202.68 1177.16 1082.54 1055.16 C 962.416 933.135 902.349 787.7 902.349 618.846 C 902.349 436.114 969.927 288.655 1105.07 176.469 C 1240.22 64.288 1398.57 8.187 1580.1 8.187 Z M 1561.08 71.517 C 1431.6 71.517 1327.65 117.92 1249.23 210.731 C 1170.81 303.545 1131.6 438.426 1131.6 615.375 C 1131.6 780.762 1168.31 915.643 1241.73 1020.02 C 1315.14 1124.4 1421.93 1176.57 1562.08 1176.57 C 1698.23 1176.57 1805.69 1130.77 1884.44 1039.11 C 1963.19 947.449 2002.57 814.301 2002.57 639.663 C 2002.57 462.712 1965.7 323.784 1891.95 222.874 C 1818.2 121.966 1707.91 71.517 1561.08 71.517 Z M 1325.82 413.271 L 1363.86 413.271 C 1363.86 463.003 1375.54 498.568 1398.9 519.962 C 1422.26 541.358 1465.31 552.056 1528.04 552.055 L 1609.13 552.055 C 1668.53 552.056 1710.25 541.504 1734.27 520.394 C 1758.3 499.288 1770.31 463.581 1770.31 413.271 L 1808.36 413.271 L 1808.36 832.227 L 1770.31 832.227 C 1770.31 783.074 1758.63 747.8 1735.27 726.404 C 1711.91 705.009 1669.2 694.311 1607.13 694.31 L 1524.04 694.31 C 1464.64 694.311 1423.09 705.009 1399.4 726.404 C 1375.71 747.8 1363.86 783.074 1363.86 832.227 L 1325.82 832.227 L 1325.82 413.271 Z" id="text2175" transform="matrix(1, 0, 0, 1, -2.2737367544323206e-13, 0)"/></svg>